<svg id="visual" viewBox="0 0 960 540" width="960" height="540" xmlns="http://www.w3.org/2000/svg" xmlns:xlink="http://www.w3.org/1999/xlink" version="1.1"><path d="M0 50L96 82L192 60L288 82L384 66L480 77L576 71L672 55L768 66L864 50L960 44L960 0L864 0L768 0L672 0L576 0L480 0L384 0L288 0L192 0L96 0L0 0Z" fill="#ece4d4"></path><path d="M0 125L96 158L192 114L288 136L384 136L480 163L576 147L672 136L768 163L864 141L960 125L960 42L864 48L768 64L672 53L576 69L480 75L384 64L288 80L192 58L96 80L0 48Z" fill="#e8e0cc"></path><path d="M0 276L96 314L192 266L288 347L384 287L480 282L576 266L672 314L768 341L864 314L960 293L960 123L864 139L768 161L672 134L576 145L480 161L384 134L288 134L192 112L96 156L0 123Z" fill="#e3dcc4"></path><path d="M0 460L96 455L192 471L288 460L384 455L480 455L576 438L672 422L768 465L864 471L960 471L960 291L864 312L768 339L672 312L576 264L480 280L384 285L288 345L192 264L96 312L0 274Z" fill="#ded8bc"></path><path d="M0 541L96 541L192 541L288 541L384 541L480 541L576 541L672 541L768 541L864 541L960 541L960 469L864 469L768 463L672 420L576 436L480 453L384 453L288 458L192 469L96 453L0 458Z" fill="#d8d4b4"></path></svg>