<svg id="visual" viewBox="0 0 960 540" width="960" height="540" xmlns="http://www.w3.org/2000/svg" xmlns:xlink="http://www.w3.org/1999/xlink" version="1.1"><path d="M0 93L137 60L274 77L411 93L549 66L686 82L823 93L960 55L960 0L823 0L686 0L549 0L411 0L274 0L137 0L0 0Z" fill="#88c6a3"></path><path d="M0 249L137 239L274 195L411 212L549 239L686 217L823 233L960 158L960 53L823 91L686 80L549 64L411 91L274 75L137 58L0 91Z" fill="#80bc9a"></path><path d="M0 379L137 368L274 363L411 384L549 390L686 395L823 357L960 352L960 156L823 231L686 215L549 237L411 210L274 193L137 237L0 247Z" fill="#78b291"></path><path d="M0 444L137 417L274 428L411 428L549 438L686 460L823 433L960 428L960 350L823 355L686 393L549 388L411 382L274 361L137 366L0 377Z" fill="#70a888"></path><path d="M0 541L137 541L274 541L411 541L549 541L686 541L823 541L960 541L960 426L823 431L686 458L549 436L411 426L274 426L137 415L0 442Z" fill="#689e80"></path></svg>