<svg id="visual" viewBox="0 0 540 960" width="540" height="960" xmlns="http://www.w3.org/2000/svg" xmlns:xlink="http://www.w3.org/1999/xlink" version="1.1"><rect x="0" y="0" width="540" height="960" fill="#2a593f"></rect><g fill="#689e80"><path d="M28.9 16.7L28.9 74.4L-28.9 74.4L-28.9 16.7L-78.9 -12.2L-50 -62.2L0 -33.3L50 -62.2L78.9 -12.2Z" transform="translate(527 750)"></path><path d="M11.1 6.4L11.1 28.5L-11.1 28.5L-11.1 6.4L-30.2 -4.7L-19.2 -23.8L0 -12.8L19.2 -23.8L30.2 -4.7Z" transform="translate(359 439)"></path><path d="M22.1 12.8L22.1 57L-22.1 57L-22.1 12.8L-60.5 -9.4L-38.3 -47.7L0 -25.6L38.3 -47.7L60.5 -9.4Z" transform="translate(431 217)"></path><path d="M16.2 9.3L16.2 41.7L-16.2 41.7L-16.2 9.3L-44.2 -6.8L-28 -34.9L0 -18.7L28 -34.9L44.2 -6.8Z" transform="translate(258 883)"></path></g></svg>